<?xml version="1.0" encoding="UTF-8"?>
<!-- Generator: visioncortex VTracer 0.6.5 -->
<svg version="1.1" xmlns="http://www.w3.org/2000/svg" width="256" height="256">
<path d="M0 0 C84.48 0 168.96 0 256 0 C256 84.48 256 168.96 256 256 C171.52 256 87.04 256 0 256 C0 171.52 0 87.04 0 0 Z " fill="#FEFEFE" transform="translate(0,0)"/>
<path d="M0 0 C6.27 0 12.54 0 19 0 C19.33 26.07 19.66 52.14 20 79 C25.28 79.16 25.28 79.16 52 80 C51.99 77.61 51.99 75.22 51.98 72.76 C51.97 64.89 51.96 57.02 51.95 49.15 C51.94 44.38 51.94 39.6 51.92 34.83 C51.91 30.22 51.91 25.62 51.91 21.02 C51.9 19.26 51.9 17.5 51.89 15.74 C51.89 13.28 51.89 10.82 51.89 8.37 C51.88 7.63 51.88 6.9 51.88 6.14 C51.89 1.11 51.89 1.11 53 0 C55.86 -0.07 58.7 -0.09 61.56 -0.06 C62.37 -0.06 63.18 -0.05 64.01 -0.05 C66 -0.04 68 -0.02 70 0 C76.32 11.18 82.38 22.47 88.27 33.88 C92.1 41.3 96.02 48.66 100 56 C100.01 55.31 100.02 54.63 100.03 53.92 C100.14 46.8 100.25 39.68 100.37 32.56 C100.42 29.9 100.46 27.23 100.5 24.57 C100.55 20.76 100.62 16.94 100.68 13.13 C100.7 11.93 100.72 10.73 100.73 9.5 C100.75 8.4 100.77 7.3 100.79 6.16 C100.81 5.19 100.83 4.21 100.84 3.21 C101 1 101 1 102 0 C103.43 -0.11 104.87 -0.16 106.3 -0.18 C107.22 -0.19 108.13 -0.2 109.07 -0.22 C109.57 -0.22 109.57 -0.22 112.1 -0.24 C113.12 -0.25 114.14 -0.25 115.2 -0.26 C117.37 -0.28 119.54 -0.29 121.72 -0.3 C125.02 -0.31 128.33 -0.36 131.64 -0.4 C133.75 -0.41 135.86 -0.42 137.97 -0.43 C138.46 -0.43 138.46 -0.43 140.95 -0.48 C148.75 -0.45 154.39 1.5 160.31 6.62 C166.82 13.72 166.46 24.05 166.43 33.09 C166.44 34.32 166.44 35.55 166.45 36.81 C166.46 39.39 166.45 41.98 166.45 44.56 C166.44 48.49 166.47 52.42 166.5 56.35 C166.5 58.87 166.5 61.39 166.5 63.91 C166.51 65.07 166.52 66.23 166.53 67.43 C166.46 75.22 165.64 82.81 160.34 88.91 C153.64 95.34 145.67 96.48 136.77 96.57 C135.82 96.59 134.86 96.6 133.88 96.62 C131.88 96.64 129.88 96.66 127.87 96.67 C124.81 96.69 121.75 96.77 118.69 96.85 C116.74 96.87 114.78 96.88 112.83 96.89 C111.92 96.92 111.01 96.95 110.07 96.98 C103.9 96.92 103.9 96.92 101.38 94.35 C100.07 92.29 99.01 90.23 98 88 C97.48 87.06 96.96 86.12 96.43 85.15 C95.99 84.28 95.55 83.42 95.09 82.52 C94.58 81.53 94.07 80.54 93.55 79.52 C93.02 78.48 92.48 77.44 91.94 76.38 C86.13 65.1 80.13 53.95 74.01 42.85 C73.32 41.58 72.65 40.29 72 39 C71.99 39.7 71.98 40.4 71.97 41.12 C71.87 47.7 71.77 54.27 71.66 60.85 C71.61 64.23 71.55 67.62 71.5 71 C71.45 74.88 71.38 78.77 71.32 82.65 C71.3 83.87 71.28 85.09 71.27 86.35 C71.25 87.47 71.23 88.59 71.21 89.75 C71.19 90.74 71.17 91.73 71.16 92.75 C71 95 71 95 70 96 C67.86 96.1 65.71 96.13 63.57 96.13 C63.23 96.13 63.23 96.13 61.53 96.13 C59.3 96.14 57.07 96.14 54.84 96.13 C53.3 96.13 51.76 96.13 50.21 96.14 C46.98 96.14 43.74 96.14 40.5 96.13 C36.34 96.12 32.18 96.13 28.02 96.13 C24.83 96.14 21.64 96.14 18.46 96.13 C16.92 96.13 15.39 96.13 13.85 96.14 C11.71 96.14 9.57 96.13 7.43 96.13 C6.82 96.13 6.82 96.13 3.73 96.13 C1 96 1 96 0 95 C-0.1 92.05 -0.13 89.12 -0.11 86.17 C-0.11 85.24 -0.11 84.31 -0.11 83.36 C-0.11 80.28 -0.11 77.2 -0.1 74.12 C-0.1 71.99 -0.09 69.86 -0.09 67.74 C-0.09 62.12 -0.08 56.51 -0.07 50.89 C-0.06 45.17 -0.05 39.44 -0.05 33.72 C-0.04 22.48 -0.02 11.24 0 0 Z " fill="#BFD9EC" transform="translate(51,84)"/>
<path d="M0 0 C6.27 0 12.54 0 19 0 C19.33 26.07 19.66 52.14 20 79 C25.28 79.16 25.28 79.16 52 80 C51.99 77.61 51.99 75.22 51.98 72.76 C51.97 64.89 51.96 57.02 51.95 49.15 C51.94 44.38 51.94 39.6 51.92 34.83 C51.91 30.22 51.91 25.62 51.91 21.02 C51.9 19.26 51.9 17.5 51.89 15.74 C51.89 13.28 51.89 10.82 51.89 8.37 C51.88 7.63 51.88 6.9 51.88 6.14 C51.89 1.11 51.89 1.11 53 0 C55.86 -0.07 58.7 -0.09 61.56 -0.06 C62.37 -0.06 63.18 -0.05 64.01 -0.05 C66 -0.04 68 -0.02 70 0 C75.72 10.11 81.24 20.3 86.56 30.62 C91.12 39.45 95.79 48.17 100.73 56.79 C103.42 61.48 106.08 66.18 108.75 70.88 C109.29 71.83 109.84 72.78 110.4 73.76 C111.95 76.5 113.48 79.24 115 82 C115.51 82.92 116.01 83.83 116.54 84.78 C117 85.66 117.47 86.54 117.95 87.45 C118.37 88.23 118.79 89.01 119.22 89.81 C120.12 92.34 119.91 93.52 119 96 C116.43 96.22 113.88 96.37 111.31 96.5 C110.59 96.57 109.87 96.63 109.13 96.7 C106.86 96.79 105.16 96.7 103 96 C100.66 93.69 99.42 90.94 98 88 C97.03 86.17 96.06 84.35 95.09 82.52 C94.04 80.48 92.99 78.43 91.94 76.38 C86.13 65.1 80.13 53.95 74.01 42.85 C73.32 41.58 72.65 40.29 72 39 C71.99 39.7 71.98 40.4 71.97 41.12 C71.87 47.7 71.77 54.27 71.66 60.85 C71.61 64.23 71.55 67.62 71.5 71 C71.45 74.88 71.38 78.77 71.32 82.65 C71.3 83.87 71.28 85.09 71.27 86.35 C71.25 87.47 71.23 88.59 71.21 89.75 C71.19 90.74 71.17 91.73 71.16 92.75 C71 95 71 95 70 96 C67.86 96.1 65.71 96.13 63.57 96.13 C63.23 96.13 63.23 96.13 61.53 96.13 C59.3 96.14 57.07 96.14 54.84 96.13 C53.3 96.13 51.76 96.13 50.21 96.14 C46.98 96.14 43.74 96.14 40.5 96.13 C36.34 96.12 32.18 96.13 28.02 96.13 C24.83 96.14 21.64 96.14 18.46 96.13 C16.92 96.13 15.39 96.13 13.85 96.14 C11.71 96.14 9.57 96.13 7.43 96.13 C6.82 96.13 6.82 96.13 3.73 96.13 C1 96 1 96 0 95 C-0.1 92.05 -0.13 89.12 -0.11 86.17 C-0.11 85.24 -0.11 84.31 -0.11 83.36 C-0.11 80.28 -0.11 77.2 -0.1 74.12 C-0.1 71.99 -0.09 69.86 -0.09 67.74 C-0.09 62.12 -0.08 56.51 -0.07 50.89 C-0.06 45.17 -0.05 39.44 -0.05 33.72 C-0.04 22.48 -0.02 11.24 0 0 Z " fill="#323232" transform="translate(51,84)"/>
<path d="M0 0 C1.58 0.01 3.16 0.02 4.75 0.04 C5.55 0.04 6.36 0.04 7.19 0.05 C9.19 0.06 11.19 0.08 13.18 0.1 C18.9 10.21 24.42 20.4 29.75 30.72 C34.31 39.54 38.98 48.27 43.92 56.88 C46.6 61.57 49.27 66.27 51.93 70.97 C52.48 71.92 53.02 72.88 53.58 73.86 C55.13 76.59 56.67 79.34 58.18 82.1 C58.69 83.01 59.2 83.93 59.72 84.88 C60.19 85.76 60.66 86.64 61.14 87.54 C61.56 88.32 61.98 89.11 62.41 89.91 C63.3 92.43 63.09 93.62 62.18 96.1 C59.62 96.31 57.07 96.47 54.5 96.6 C53.77 96.66 53.05 96.73 52.31 96.8 C50.05 96.88 48.34 96.8 46.18 96.1 C43.85 93.78 42.6 91.04 41.18 88.1 C40.21 86.27 39.24 84.45 38.27 82.62 C37.22 80.57 36.17 78.52 35.12 76.47 C27.74 62.15 20.14 47.95 12.12 33.97 C7.03 25.08 2.12 16.08 -2.82 7.1 C-3.15 31.19 -3.48 55.28 -3.82 80.1 C-4.15 80.1 -4.48 80.1 -4.82 80.1 C-4.84 69.81 -4.86 59.53 -4.87 49.25 C-4.87 44.47 -4.88 39.7 -4.89 34.93 C-4.9 30.32 -4.91 25.72 -4.91 21.11 C-4.91 19.35 -4.92 17.59 -4.92 15.83 C-4.93 13.38 -4.93 10.92 -4.93 8.46 C-4.93 7.73 -4.94 6.99 -4.94 6.24 C-4.93 0.13 -4.93 0.13 0 0 Z " fill="#388FC9" transform="translate(107.81640625,83.90234375)"/>
<path d="M0 0 C0.92 -0.01 1.83 -0.02 2.78 -0.04 C3.66 -0.04 4.55 -0.04 5.46 -0.04 C6.27 -0.05 7.08 -0.05 7.91 -0.06 C10.47 0.22 12.02 0.8 14.19 2.19 C16.37 5.47 16.44 6.42 16.45 10.22 C16.45 11.25 16.46 12.27 16.47 13.33 C16.46 14.43 16.46 15.54 16.45 16.68 C16.46 17.82 16.46 18.96 16.46 20.13 C16.46 22.54 16.46 24.95 16.45 27.36 C16.44 31.04 16.45 34.73 16.46 38.41 C16.46 40.75 16.46 43.09 16.45 45.43 C16.46 46.53 16.46 47.63 16.47 48.77 C16.46 49.8 16.45 50.83 16.45 51.89 C16.45 52.35 16.45 52.35 16.44 54.63 C16.16 57.49 15.46 59.62 14.19 62.19 C11.63 63.47 9.82 63.3 6.96 63.29 C5.93 63.28 4.9 63.28 3.84 63.28 C3.3 63.27 3.3 63.27 0.56 63.25 C0.02 63.25 0.02 63.25 -2.73 63.24 C-5.43 63.22 -8.12 63.21 -10.81 63.19 C-10.84 55.12 -10.85 47.05 -10.86 38.99 C-10.87 35.24 -10.88 31.5 -10.89 27.75 C-10.9 24.14 -10.9 20.53 -10.91 16.92 C-10.91 15.54 -10.91 14.16 -10.92 12.78 C-10.93 10.85 -10.93 8.92 -10.93 6.99 C-10.93 5.89 -10.93 4.79 -10.93 3.66 C-10.66 -1.91 -4.38 0 0 0 Z " fill="#FDFEFE" transform="translate(181.8125,99.8125)"/>
<path d="M0 0 C0.8 0 1.6 0.01 2.42 0.01 C3.22 0.01 4.01 0 4.84 0 C10.79 0.01 10.79 0.01 11.92 1.14 C12.01 3.97 12.04 6.77 12.03 9.6 C12.03 10.49 12.03 11.38 12.03 12.29 C12.03 15.24 12.02 18.19 12.02 21.14 C12.01 23.18 12.01 25.22 12.01 27.26 C12.01 32.63 12 38.01 11.99 43.39 C11.98 48.87 11.97 54.36 11.97 59.84 C11.96 70.6 11.94 81.37 11.92 92.14 C9.36 88.81 7.38 85.44 5.41 81.73 C5.09 81.12 4.77 80.51 4.43 79.88 C3.4 77.95 2.38 76.01 1.36 74.07 C0.33 72.13 -0.7 70.19 -1.73 68.26 C-2.67 66.5 -3.6 64.74 -4.53 62.98 C-6.08 60.14 -6.08 60.14 -8.08 57.14 C-8.29 54.66 -8.29 54.66 -8.23 51.67 C-8.22 50.55 -8.2 49.44 -8.18 48.28 C-8.15 47.08 -8.12 45.87 -8.09 44.63 C-8.07 43.39 -8.05 42.16 -8.03 40.88 C-7.96 37.6 -7.89 34.31 -7.81 31.03 C-7.74 27.68 -7.68 24.33 -7.62 20.98 C-7.57 18.45 -7.52 15.91 -7.47 13.38 C-7.45 12.17 -7.42 10.96 -7.4 9.71 C-7.39 9.16 -7.39 9.16 -7.32 6.34 C-7.3 5.36 -7.28 4.38 -7.25 3.36 C-6.9 -1.2 -3.91 0.01 0 0 Z " fill="#9AC6E4" transform="translate(159.08203125,83.86328125)"/>
<path d="M0 0 C2.87 3.51 5.14 6.87 7.2 10.92 C7.77 12.03 8.34 13.14 8.92 14.28 C9.51 15.42 10.09 16.57 10.69 17.75 C11.86 20.04 13.03 22.32 14.2 24.61 C14.71 25.62 15.23 26.63 15.76 27.67 C17 30 17 30 18 31 C18.1 32.84 18.13 34.68 18.13 36.51 C18.13 37.69 18.14 38.87 18.14 40.08 C18.14 41.37 18.13 42.65 18.13 43.97 C18.13 44.62 18.13 44.62 18.14 47.93 C18.14 50.69 18.14 53.46 18.13 56.23 C18.12 59.78 18.13 63.34 18.13 66.89 C18.14 70.27 18.14 73.65 18.13 77.03 C18.13 78.31 18.14 79.6 18.14 80.92 C18.14 82.09 18.13 83.27 18.13 84.49 C18.13 85.53 18.13 86.57 18.13 87.65 C18 90 18 90 17 91 C14.32 91.1 11.68 91.14 9 91.12 C8.62 91.13 8.62 91.13 6.73 91.14 C1.13 91.13 1.13 91.13 0 90 C-0.1 87.2 -0.13 84.42 -0.11 81.62 C-0.11 80.75 -0.11 79.87 -0.11 78.96 C-0.11 76.05 -0.11 73.13 -0.1 70.21 C-0.1 68.2 -0.09 66.18 -0.09 64.17 C-0.09 58.85 -0.08 53.53 -0.07 48.21 C-0.06 42.79 -0.05 37.37 -0.05 31.94 C-0.04 21.3 -0.02 10.65 0 0 Z " fill="#00558D" transform="translate(104,89)"/>
<path d="M0 0 C0.75 0.03 1.5 0.06 2.27 0.08 C4.64 0.18 7.01 0.3 9.39 0.42 C11 0.49 12.62 0.56 14.23 0.62 C18.18 0.78 22.13 0.98 26.07 1.17 C26.24 3.81 26.24 3.81 27.07 17.17 C9.58 17.17 -7.91 17.17 -25.93 17.17 C-20.29 10.41 -20.29 10.41 -16.93 7.55 C-16.29 7 -15.65 6.45 -14.99 5.88 C-14.31 5.32 -13.63 4.75 -12.93 4.17 C-12.22 3.48 -11.52 2.79 -10.79 2.08 C-7.12 -0.36 -4.23 -0.25 0 0 Z " fill="#4C4D4D" transform="translate(77.92578125,162.828125)"/>
</svg>
